<mxfile host="app.diagrams.net" agent="Mozilla/5.0 (Windows NT 10.0; Win64; x64) AppleWebKit/537.36 (KHTML, like Gecko) Chrome/130.0.0.0 Safari/537.36" version="24.8.3">
  <diagram id="C5RBs43oDa-KdzZeNtuy" name="Page-1">
    <mxGraphModel dx="880" dy="1629" grid="1" gridSize="10" guides="1" tooltips="1" connect="1" arrows="1" fold="1" page="1" pageScale="1" pageWidth="827" pageHeight="1169" math="0" shadow="0">
      <root>
        <mxCell id="WIyWlLk6GJQsqaUBKTNV-0" />
        <mxCell id="WIyWlLk6GJQsqaUBKTNV-1" parent="WIyWlLk6GJQsqaUBKTNV-0" />
        <mxCell id="54b1UpvcOUvbJdiVJiE3-0" value="Joblink Website&amp;nbsp;" style="ellipse;whiteSpace=wrap;html=1;aspect=fixed;" parent="WIyWlLk6GJQsqaUBKTNV-1" vertex="1">
          <mxGeometry x="350" y="220" width="110" height="110" as="geometry" />
        </mxCell>
        <mxCell id="54b1UpvcOUvbJdiVJiE3-1" value="Job_Seeker" style="whiteSpace=wrap;html=1;aspect=fixed;" parent="WIyWlLk6GJQsqaUBKTNV-1" vertex="1">
          <mxGeometry x="90" y="210" width="110" height="110" as="geometry" />
        </mxCell>
        <mxCell id="54b1UpvcOUvbJdiVJiE3-2" value="Admin" style="whiteSpace=wrap;html=1;aspect=fixed;" parent="WIyWlLk6GJQsqaUBKTNV-1" vertex="1">
          <mxGeometry x="700" y="215" width="100" height="100" as="geometry" />
        </mxCell>
        <mxCell id="54b1UpvcOUvbJdiVJiE3-3" value="Employeers" style="whiteSpace=wrap;html=1;aspect=fixed;" parent="WIyWlLk6GJQsqaUBKTNV-1" vertex="1">
          <mxGeometry x="360" y="50" width="90" height="90" as="geometry" />
        </mxCell>
        <mxCell id="54b1UpvcOUvbJdiVJiE3-4" value="" style="endArrow=classic;html=1;rounded=0;exitX=0.991;exitY=0.618;exitDx=0;exitDy=0;exitPerimeter=0;" parent="WIyWlLk6GJQsqaUBKTNV-1" source="54b1UpvcOUvbJdiVJiE3-1" edge="1">
          <mxGeometry width="50" height="50" relative="1" as="geometry">
            <mxPoint x="210" y="290" as="sourcePoint" />
            <mxPoint x="340" y="280" as="targetPoint" />
          </mxGeometry>
        </mxCell>
        <mxCell id="54b1UpvcOUvbJdiVJiE3-5" value="Resume" style="edgeLabel;html=1;align=center;verticalAlign=middle;resizable=0;points=[];" parent="54b1UpvcOUvbJdiVJiE3-4" vertex="1" connectable="0">
          <mxGeometry x="-0.0072" relative="1" as="geometry">
            <mxPoint as="offset" />
          </mxGeometry>
        </mxCell>
        <mxCell id="54b1UpvcOUvbJdiVJiE3-6" value="" style="endArrow=classic;html=1;rounded=0;exitX=-0.03;exitY=0.63;exitDx=0;exitDy=0;exitPerimeter=0;entryX=1;entryY=0.5;entryDx=0;entryDy=0;" parent="WIyWlLk6GJQsqaUBKTNV-1" source="54b1UpvcOUvbJdiVJiE3-2" target="54b1UpvcOUvbJdiVJiE3-0" edge="1">
          <mxGeometry relative="1" as="geometry">
            <mxPoint x="360" y="250" as="sourcePoint" />
            <mxPoint x="460" y="250" as="targetPoint" />
          </mxGeometry>
        </mxCell>
        <mxCell id="54b1UpvcOUvbJdiVJiE3-7" value="Edit and&amp;nbsp;&lt;div&gt;Delete access&lt;/div&gt;" style="edgeLabel;resizable=0;html=1;;align=center;verticalAlign=middle;" parent="54b1UpvcOUvbJdiVJiE3-6" connectable="0" vertex="1">
          <mxGeometry relative="1" as="geometry" />
        </mxCell>
        <mxCell id="54b1UpvcOUvbJdiVJiE3-8" value="J" style="endArrow=classic;html=1;rounded=0;exitX=0.5;exitY=1;exitDx=0;exitDy=0;entryX=0.5;entryY=0;entryDx=0;entryDy=0;" parent="WIyWlLk6GJQsqaUBKTNV-1" source="54b1UpvcOUvbJdiVJiE3-3" target="54b1UpvcOUvbJdiVJiE3-0" edge="1">
          <mxGeometry relative="1" as="geometry">
            <mxPoint x="360" y="250" as="sourcePoint" />
            <mxPoint x="460" y="250" as="targetPoint" />
            <Array as="points" />
          </mxGeometry>
        </mxCell>
        <mxCell id="54b1UpvcOUvbJdiVJiE3-9" value="Job Post&amp;nbsp;" style="edgeLabel;resizable=0;html=1;;align=center;verticalAlign=middle;" parent="54b1UpvcOUvbJdiVJiE3-8" connectable="0" vertex="1">
          <mxGeometry relative="1" as="geometry" />
        </mxCell>
        <mxCell id="54b1UpvcOUvbJdiVJiE3-10" value="" style="endArrow=classic;html=1;rounded=0;entryX=1.027;entryY=0.391;entryDx=0;entryDy=0;entryPerimeter=0;exitX=0;exitY=0.5;exitDx=0;exitDy=0;" parent="WIyWlLk6GJQsqaUBKTNV-1" source="54b1UpvcOUvbJdiVJiE3-2" target="54b1UpvcOUvbJdiVJiE3-0" edge="1">
          <mxGeometry width="50" height="50" relative="1" as="geometry">
            <mxPoint x="610" y="260" as="sourcePoint" />
            <mxPoint x="440" y="220" as="targetPoint" />
          </mxGeometry>
        </mxCell>
        <mxCell id="54b1UpvcOUvbJdiVJiE3-11" value="Response to Fake&amp;nbsp;&lt;div&gt;Alert&lt;/div&gt;" style="text;html=1;align=center;verticalAlign=middle;resizable=0;points=[];autosize=1;strokeColor=none;fillColor=none;" parent="WIyWlLk6GJQsqaUBKTNV-1" vertex="1">
          <mxGeometry x="530" y="220" width="120" height="40" as="geometry" />
        </mxCell>
        <mxCell id="54b1UpvcOUvbJdiVJiE3-12" value="" style="endArrow=classic;html=1;rounded=0;entryX=0.75;entryY=1;entryDx=0;entryDy=0;exitX=0.7;exitY=0.073;exitDx=0;exitDy=0;exitPerimeter=0;" parent="WIyWlLk6GJQsqaUBKTNV-1" source="54b1UpvcOUvbJdiVJiE3-0" target="54b1UpvcOUvbJdiVJiE3-3" edge="1">
          <mxGeometry width="50" height="50" relative="1" as="geometry">
            <mxPoint x="390" y="270" as="sourcePoint" />
            <mxPoint x="440" y="220" as="targetPoint" />
          </mxGeometry>
        </mxCell>
        <mxCell id="54b1UpvcOUvbJdiVJiE3-13" value="Applications" style="text;html=1;align=center;verticalAlign=middle;resizable=0;points=[];autosize=1;strokeColor=none;fillColor=none;" parent="WIyWlLk6GJQsqaUBKTNV-1" vertex="1">
          <mxGeometry x="420" y="168" width="90" height="30" as="geometry" />
        </mxCell>
        <mxCell id="54b1UpvcOUvbJdiVJiE3-14" value="" style="endArrow=classic;html=1;rounded=0;entryX=1;entryY=0.75;entryDx=0;entryDy=0;exitX=0.027;exitY=0.691;exitDx=0;exitDy=0;exitPerimeter=0;" parent="WIyWlLk6GJQsqaUBKTNV-1" source="54b1UpvcOUvbJdiVJiE3-0" target="54b1UpvcOUvbJdiVJiE3-1" edge="1">
          <mxGeometry width="50" height="50" relative="1" as="geometry">
            <mxPoint x="390" y="270" as="sourcePoint" />
            <mxPoint x="440" y="220" as="targetPoint" />
          </mxGeometry>
        </mxCell>
        <mxCell id="54b1UpvcOUvbJdiVJiE3-15" value="Filtered&amp;nbsp;&lt;div&gt;Job Post&lt;/div&gt;" style="text;html=1;align=center;verticalAlign=middle;resizable=0;points=[];autosize=1;strokeColor=none;fillColor=none;" parent="WIyWlLk6GJQsqaUBKTNV-1" vertex="1">
          <mxGeometry x="245" y="303" width="70" height="40" as="geometry" />
        </mxCell>
        <mxCell id="54b1UpvcOUvbJdiVJiE3-16" value="" style="endArrow=classic;html=1;rounded=0;exitX=0;exitY=0.85;exitDx=0;exitDy=0;exitPerimeter=0;entryX=0.991;entryY=0.7;entryDx=0;entryDy=0;entryPerimeter=0;" parent="WIyWlLk6GJQsqaUBKTNV-1" source="54b1UpvcOUvbJdiVJiE3-2" target="54b1UpvcOUvbJdiVJiE3-0" edge="1">
          <mxGeometry width="50" height="50" relative="1" as="geometry">
            <mxPoint x="390" y="270" as="sourcePoint" />
            <mxPoint x="630" y="300" as="targetPoint" />
          </mxGeometry>
        </mxCell>
        <mxCell id="54b1UpvcOUvbJdiVJiE3-17" value="Post Approval" style="text;html=1;align=center;verticalAlign=middle;resizable=0;points=[];autosize=1;strokeColor=none;fillColor=none;" parent="WIyWlLk6GJQsqaUBKTNV-1" vertex="1">
          <mxGeometry x="500" y="305" width="100" height="30" as="geometry" />
        </mxCell>
        <mxCell id="54b1UpvcOUvbJdiVJiE3-18" value="Chatbot" style="ellipse;whiteSpace=wrap;html=1;aspect=fixed;" parent="WIyWlLk6GJQsqaUBKTNV-1" vertex="1">
          <mxGeometry x="200" y="90" width="80" height="80" as="geometry" />
        </mxCell>
        <mxCell id="54b1UpvcOUvbJdiVJiE3-19" value="" style="endArrow=classic;html=1;rounded=0;" parent="WIyWlLk6GJQsqaUBKTNV-1" edge="1">
          <mxGeometry width="50" height="50" relative="1" as="geometry">
            <mxPoint x="160" y="210" as="sourcePoint" />
            <mxPoint x="210" y="160" as="targetPoint" />
          </mxGeometry>
        </mxCell>
        <mxCell id="54b1UpvcOUvbJdiVJiE3-20" value="Response" style="text;html=1;align=center;verticalAlign=middle;resizable=0;points=[];autosize=1;strokeColor=none;fillColor=none;" parent="WIyWlLk6GJQsqaUBKTNV-1" vertex="1">
          <mxGeometry x="210" y="178" width="80" height="30" as="geometry" />
        </mxCell>
        <mxCell id="54b1UpvcOUvbJdiVJiE3-21" value="Queries" style="text;html=1;align=center;verticalAlign=middle;resizable=0;points=[];autosize=1;strokeColor=none;fillColor=none;" parent="WIyWlLk6GJQsqaUBKTNV-1" vertex="1">
          <mxGeometry x="135" y="148" width="70" height="30" as="geometry" />
        </mxCell>
        <mxCell id="54b1UpvcOUvbJdiVJiE3-22" value="" style="endArrow=classic;html=1;rounded=0;" parent="WIyWlLk6GJQsqaUBKTNV-1" edge="1">
          <mxGeometry width="50" height="50" relative="1" as="geometry">
            <mxPoint x="230" y="170" as="sourcePoint" />
            <mxPoint x="190" y="208" as="targetPoint" />
          </mxGeometry>
        </mxCell>
        <mxCell id="54b1UpvcOUvbJdiVJiE3-23" value="" style="endArrow=classic;html=1;rounded=0;" parent="WIyWlLk6GJQsqaUBKTNV-1" edge="1">
          <mxGeometry width="50" height="50" relative="1" as="geometry">
            <mxPoint x="270" y="100" as="sourcePoint" />
            <mxPoint x="363" y="100" as="targetPoint" />
          </mxGeometry>
        </mxCell>
        <mxCell id="54b1UpvcOUvbJdiVJiE3-24" value="Response" style="text;html=1;align=center;verticalAlign=middle;resizable=0;points=[];autosize=1;strokeColor=none;fillColor=none;" parent="WIyWlLk6GJQsqaUBKTNV-1" vertex="1">
          <mxGeometry x="270" y="58" width="80" height="30" as="geometry" />
        </mxCell>
        <mxCell id="54b1UpvcOUvbJdiVJiE3-25" value="" style="endArrow=classic;html=1;rounded=0;exitX=0;exitY=0.75;exitDx=0;exitDy=0;entryX=1.025;entryY=0.363;entryDx=0;entryDy=0;entryPerimeter=0;" parent="WIyWlLk6GJQsqaUBKTNV-1" source="54b1UpvcOUvbJdiVJiE3-3" target="54b1UpvcOUvbJdiVJiE3-18" edge="1">
          <mxGeometry width="50" height="50" relative="1" as="geometry">
            <mxPoint x="390" y="270" as="sourcePoint" />
            <mxPoint x="440" y="220" as="targetPoint" />
          </mxGeometry>
        </mxCell>
        <mxCell id="54b1UpvcOUvbJdiVJiE3-26" value="Queries" style="text;html=1;align=center;verticalAlign=middle;resizable=0;points=[];autosize=1;strokeColor=none;fillColor=none;" parent="WIyWlLk6GJQsqaUBKTNV-1" vertex="1">
          <mxGeometry x="285" y="118" width="70" height="30" as="geometry" />
        </mxCell>
        <mxCell id="q28cn4df8tAuvSOoB8m3-0" value="Sign up&lt;div&gt;Log in&lt;/div&gt;" style="ellipse;whiteSpace=wrap;html=1;aspect=fixed;" parent="WIyWlLk6GJQsqaUBKTNV-1" vertex="1">
          <mxGeometry x="245" y="370" width="80" height="80" as="geometry" />
        </mxCell>
        <mxCell id="q28cn4df8tAuvSOoB8m3-1" value="" style="endArrow=classic;html=1;rounded=0;exitX=1;exitY=1;exitDx=0;exitDy=0;entryX=0;entryY=0;entryDx=0;entryDy=0;" parent="WIyWlLk6GJQsqaUBKTNV-1" source="54b1UpvcOUvbJdiVJiE3-1" target="q28cn4df8tAuvSOoB8m3-0" edge="1">
          <mxGeometry width="50" height="50" relative="1" as="geometry">
            <mxPoint x="390" y="270" as="sourcePoint" />
            <mxPoint x="440" y="220" as="targetPoint" />
          </mxGeometry>
        </mxCell>
        <mxCell id="q28cn4df8tAuvSOoB8m3-2" value="" style="endArrow=classic;html=1;rounded=0;exitX=1;exitY=0;exitDx=0;exitDy=0;" parent="WIyWlLk6GJQsqaUBKTNV-1" source="q28cn4df8tAuvSOoB8m3-0" target="54b1UpvcOUvbJdiVJiE3-0" edge="1">
          <mxGeometry width="50" height="50" relative="1" as="geometry">
            <mxPoint x="390" y="270" as="sourcePoint" />
            <mxPoint x="440" y="220" as="targetPoint" />
          </mxGeometry>
        </mxCell>
        <mxCell id="q28cn4df8tAuvSOoB8m3-3" value="Informations" style="text;html=1;align=center;verticalAlign=middle;resizable=0;points=[];autosize=1;strokeColor=none;fillColor=none;" parent="WIyWlLk6GJQsqaUBKTNV-1" vertex="1">
          <mxGeometry x="145" y="358" width="90" height="30" as="geometry" />
        </mxCell>
        <mxCell id="q28cn4df8tAuvSOoB8m3-4" value="Informations" style="text;html=1;align=center;verticalAlign=middle;resizable=0;points=[];autosize=1;strokeColor=none;fillColor=none;" parent="WIyWlLk6GJQsqaUBKTNV-1" vertex="1">
          <mxGeometry x="325" y="348" width="90" height="30" as="geometry" />
        </mxCell>
        <mxCell id="q28cn4df8tAuvSOoB8m3-5" value="Fake post&amp;nbsp;&lt;div&gt;checker&lt;/div&gt;" style="ellipse;whiteSpace=wrap;html=1;aspect=fixed;" parent="WIyWlLk6GJQsqaUBKTNV-1" vertex="1">
          <mxGeometry x="585" y="55" width="80" height="80" as="geometry" />
        </mxCell>
        <mxCell id="q28cn4df8tAuvSOoB8m3-7" value="" style="endArrow=classic;html=1;rounded=0;" parent="WIyWlLk6GJQsqaUBKTNV-1" source="54b1UpvcOUvbJdiVJiE3-0" edge="1">
          <mxGeometry width="50" height="50" relative="1" as="geometry">
            <mxPoint x="550" y="180" as="sourcePoint" />
            <mxPoint x="600" y="130" as="targetPoint" />
          </mxGeometry>
        </mxCell>
        <mxCell id="q28cn4df8tAuvSOoB8m3-10" value="" style="endArrow=classic;html=1;rounded=0;exitX=1;exitY=1;exitDx=0;exitDy=0;entryX=0;entryY=0;entryDx=0;entryDy=0;" parent="WIyWlLk6GJQsqaUBKTNV-1" source="q28cn4df8tAuvSOoB8m3-5" target="54b1UpvcOUvbJdiVJiE3-2" edge="1">
          <mxGeometry width="50" height="50" relative="1" as="geometry">
            <mxPoint x="690" y="170" as="sourcePoint" />
            <mxPoint x="740" y="120" as="targetPoint" />
          </mxGeometry>
        </mxCell>
        <mxCell id="q28cn4df8tAuvSOoB8m3-11" value="Checking&amp;nbsp;&lt;div&gt;Result&lt;/div&gt;" style="text;html=1;align=center;verticalAlign=middle;resizable=0;points=[];autosize=1;strokeColor=none;fillColor=none;" parent="WIyWlLk6GJQsqaUBKTNV-1" vertex="1">
          <mxGeometry x="670" y="133" width="80" height="40" as="geometry" />
        </mxCell>
        <mxCell id="q28cn4df8tAuvSOoB8m3-12" value="Notification&lt;div&gt;of job post&lt;/div&gt;" style="text;html=1;align=center;verticalAlign=middle;resizable=0;points=[];autosize=1;strokeColor=none;fillColor=none;" parent="WIyWlLk6GJQsqaUBKTNV-1" vertex="1">
          <mxGeometry x="465" y="138" width="80" height="40" as="geometry" />
        </mxCell>
        <mxCell id="q28cn4df8tAuvSOoB8m3-13" value="1.1" style="text;html=1;align=center;verticalAlign=middle;resizable=0;points=[];autosize=1;strokeColor=none;fillColor=none;" parent="WIyWlLk6GJQsqaUBKTNV-1" vertex="1">
          <mxGeometry x="380" y="230" width="40" height="30" as="geometry" />
        </mxCell>
        <mxCell id="q28cn4df8tAuvSOoB8m3-14" value="1.2" style="text;html=1;align=center;verticalAlign=middle;resizable=0;points=[];autosize=1;strokeColor=none;fillColor=none;" parent="WIyWlLk6GJQsqaUBKTNV-1" vertex="1">
          <mxGeometry x="605" y="60" width="40" height="30" as="geometry" />
        </mxCell>
        <mxCell id="q28cn4df8tAuvSOoB8m3-15" value="Identity&lt;div&gt;Authentication&lt;/div&gt;&lt;div&gt;proccess&lt;/div&gt;" style="ellipse;whiteSpace=wrap;html=1;aspect=fixed;" parent="WIyWlLk6GJQsqaUBKTNV-1" vertex="1">
          <mxGeometry x="560" y="388" width="80" height="80" as="geometry" />
        </mxCell>
        <mxCell id="q28cn4df8tAuvSOoB8m3-16" value="" style="endArrow=classic;html=1;rounded=0;exitX=0.25;exitY=1;exitDx=0;exitDy=0;entryX=1;entryY=0.5;entryDx=0;entryDy=0;" parent="WIyWlLk6GJQsqaUBKTNV-1" source="54b1UpvcOUvbJdiVJiE3-2" target="q28cn4df8tAuvSOoB8m3-15" edge="1">
          <mxGeometry width="50" height="50" relative="1" as="geometry">
            <mxPoint x="670" y="450" as="sourcePoint" />
            <mxPoint x="720" y="400" as="targetPoint" />
          </mxGeometry>
        </mxCell>
        <mxCell id="q28cn4df8tAuvSOoB8m3-17" value="" style="endArrow=classic;html=1;rounded=0;entryX=0;entryY=0.5;entryDx=0;entryDy=0;exitX=1;exitY=0.7;exitDx=0;exitDy=0;exitPerimeter=0;" parent="WIyWlLk6GJQsqaUBKTNV-1" source="q28cn4df8tAuvSOoB8m3-0" target="q28cn4df8tAuvSOoB8m3-15" edge="1">
          <mxGeometry width="50" height="50" relative="1" as="geometry">
            <mxPoint x="410" y="460" as="sourcePoint" />
            <mxPoint x="460" y="410" as="targetPoint" />
          </mxGeometry>
        </mxCell>
        <mxCell id="q28cn4df8tAuvSOoB8m3-18" value="Informations" style="text;html=1;align=center;verticalAlign=middle;resizable=0;points=[];autosize=1;strokeColor=none;fillColor=none;" parent="WIyWlLk6GJQsqaUBKTNV-1" vertex="1">
          <mxGeometry x="415" y="388" width="90" height="30" as="geometry" />
        </mxCell>
        <mxCell id="q28cn4df8tAuvSOoB8m3-19" value="" style="endArrow=classic;html=1;rounded=0;entryX=0;entryY=1;entryDx=0;entryDy=0;exitX=1;exitY=0;exitDx=0;exitDy=0;" parent="WIyWlLk6GJQsqaUBKTNV-1" source="q28cn4df8tAuvSOoB8m3-15" target="54b1UpvcOUvbJdiVJiE3-2" edge="1">
          <mxGeometry width="50" height="50" relative="1" as="geometry">
            <mxPoint x="390" y="380" as="sourcePoint" />
            <mxPoint x="440" y="330" as="targetPoint" />
          </mxGeometry>
        </mxCell>
        <mxCell id="q28cn4df8tAuvSOoB8m3-20" value="Informations" style="text;html=1;align=center;verticalAlign=middle;resizable=0;points=[];autosize=1;strokeColor=none;fillColor=none;" parent="WIyWlLk6GJQsqaUBKTNV-1" vertex="1">
          <mxGeometry x="595" y="338" width="90" height="30" as="geometry" />
        </mxCell>
        <mxCell id="q28cn4df8tAuvSOoB8m3-21" value="Approval" style="text;html=1;align=center;verticalAlign=middle;resizable=0;points=[];autosize=1;strokeColor=none;fillColor=none;" parent="WIyWlLk6GJQsqaUBKTNV-1" vertex="1">
          <mxGeometry x="665" y="368" width="70" height="30" as="geometry" />
        </mxCell>
        <mxCell id="q28cn4df8tAuvSOoB8m3-22" value="" style="endArrow=classic;html=1;rounded=0;entryX=0.764;entryY=0.936;entryDx=0;entryDy=0;exitX=0;exitY=0.325;exitDx=0;exitDy=0;exitPerimeter=0;entryPerimeter=0;" parent="WIyWlLk6GJQsqaUBKTNV-1" source="q28cn4df8tAuvSOoB8m3-15" target="54b1UpvcOUvbJdiVJiE3-0" edge="1">
          <mxGeometry width="50" height="50" relative="1" as="geometry">
            <mxPoint x="480" y="500" as="sourcePoint" />
            <mxPoint x="530" y="450" as="targetPoint" />
          </mxGeometry>
        </mxCell>
        <mxCell id="q28cn4df8tAuvSOoB8m3-23" value="Approval" style="text;html=1;align=center;verticalAlign=middle;resizable=0;points=[];autosize=1;strokeColor=none;fillColor=none;" parent="WIyWlLk6GJQsqaUBKTNV-1" vertex="1">
          <mxGeometry x="490" y="343" width="70" height="30" as="geometry" />
        </mxCell>
        <mxCell id="YfJwNN0ao4FAIYdQB6dq-0" value="1.3" style="text;html=1;align=center;verticalAlign=middle;resizable=0;points=[];autosize=1;strokeColor=none;fillColor=none;" parent="WIyWlLk6GJQsqaUBKTNV-1" vertex="1">
          <mxGeometry x="220" y="90" width="40" height="30" as="geometry" />
        </mxCell>
        <mxCell id="YfJwNN0ao4FAIYdQB6dq-1" value="1.4" style="text;html=1;align=center;verticalAlign=middle;resizable=0;points=[];autosize=1;strokeColor=none;fillColor=none;" parent="WIyWlLk6GJQsqaUBKTNV-1" vertex="1">
          <mxGeometry x="260" y="373" width="40" height="30" as="geometry" />
        </mxCell>
        <mxCell id="YfJwNN0ao4FAIYdQB6dq-2" value="1.5" style="text;html=1;align=center;verticalAlign=middle;resizable=0;points=[];autosize=1;strokeColor=none;fillColor=none;" parent="WIyWlLk6GJQsqaUBKTNV-1" vertex="1">
          <mxGeometry x="580" y="388" width="40" height="30" as="geometry" />
        </mxCell>
        <mxCell id="9vF0xcidIcbJNyKsXih9-0" value="AI_Filter" style="ellipse;whiteSpace=wrap;html=1;aspect=fixed;" parent="WIyWlLk6GJQsqaUBKTNV-1" vertex="1">
          <mxGeometry x="710" y="-40" width="80" height="80" as="geometry" />
        </mxCell>
        <mxCell id="9vF0xcidIcbJNyKsXih9-1" value="" style="endArrow=classic;startArrow=classic;html=1;rounded=0;" parent="WIyWlLk6GJQsqaUBKTNV-1" edge="1">
          <mxGeometry width="50" height="50" relative="1" as="geometry">
            <mxPoint x="660" y="70" as="sourcePoint" />
            <mxPoint x="710" y="20" as="targetPoint" />
          </mxGeometry>
        </mxCell>
        <mxCell id="9vF0xcidIcbJNyKsXih9-2" value="Check Post" style="text;html=1;align=center;verticalAlign=middle;resizable=0;points=[];autosize=1;strokeColor=none;fillColor=none;" parent="WIyWlLk6GJQsqaUBKTNV-1" vertex="1">
          <mxGeometry x="620" y="20" width="80" height="30" as="geometry" />
        </mxCell>
        <mxCell id="9vF0xcidIcbJNyKsXih9-3" value="&lt;div&gt;User&lt;/div&gt;Registration" style="ellipse;whiteSpace=wrap;html=1;aspect=fixed;" parent="WIyWlLk6GJQsqaUBKTNV-1" vertex="1">
          <mxGeometry x="135" y="468" width="80" height="80" as="geometry" />
        </mxCell>
        <mxCell id="9vF0xcidIcbJNyKsXih9-4" value="" style="endArrow=classic;html=1;rounded=0;exitX=0.75;exitY=1;exitDx=0;exitDy=0;" parent="WIyWlLk6GJQsqaUBKTNV-1" source="54b1UpvcOUvbJdiVJiE3-1" target="9vF0xcidIcbJNyKsXih9-3" edge="1">
          <mxGeometry width="50" height="50" relative="1" as="geometry">
            <mxPoint x="80" y="520" as="sourcePoint" />
            <mxPoint x="130" y="470" as="targetPoint" />
          </mxGeometry>
        </mxCell>
        <mxCell id="9vF0xcidIcbJNyKsXih9-6" value="" style="endArrow=classic;html=1;rounded=0;exitX=0.988;exitY=0.738;exitDx=0;exitDy=0;exitPerimeter=0;" parent="WIyWlLk6GJQsqaUBKTNV-1" source="9vF0xcidIcbJNyKsXih9-3" edge="1">
          <mxGeometry width="50" height="50" relative="1" as="geometry">
            <mxPoint x="330" y="580" as="sourcePoint" />
            <mxPoint x="545.0006399863416" y="525.2399965867398" as="targetPoint" />
          </mxGeometry>
        </mxCell>
        <mxCell id="9vF0xcidIcbJNyKsXih9-7" value="Stored" style="text;html=1;align=center;verticalAlign=middle;resizable=0;points=[];autosize=1;strokeColor=none;fillColor=none;" parent="WIyWlLk6GJQsqaUBKTNV-1" vertex="1">
          <mxGeometry x="270" y="490" width="60" height="30" as="geometry" />
        </mxCell>
        <mxCell id="9vF0xcidIcbJNyKsXih9-8" value="" style="endArrow=classic;startArrow=classic;html=1;rounded=0;exitX=0.944;exitY=0.333;exitDx=0;exitDy=0;exitPerimeter=0;entryX=0.75;entryY=1;entryDx=0;entryDy=0;" parent="WIyWlLk6GJQsqaUBKTNV-1" target="54b1UpvcOUvbJdiVJiE3-2" edge="1">
          <mxGeometry width="50" height="50" relative="1" as="geometry">
            <mxPoint x="629.96" y="509.9699999999998" as="sourcePoint" />
            <mxPoint x="760" y="330" as="targetPoint" />
          </mxGeometry>
        </mxCell>
        <mxCell id="9vF0xcidIcbJNyKsXih9-9" value="Access" style="text;html=1;align=center;verticalAlign=middle;resizable=0;points=[];autosize=1;strokeColor=none;fillColor=none;" parent="WIyWlLk6GJQsqaUBKTNV-1" vertex="1">
          <mxGeometry x="700" y="398" width="60" height="30" as="geometry" />
        </mxCell>
        <mxCell id="9vF0xcidIcbJNyKsXih9-11" value="Employer Registration" style="ellipse;whiteSpace=wrap;html=1;aspect=fixed;" parent="WIyWlLk6GJQsqaUBKTNV-1" vertex="1">
          <mxGeometry x="380" y="-100" width="80" height="80" as="geometry" />
        </mxCell>
        <mxCell id="9vF0xcidIcbJNyKsXih9-12" value="" style="endArrow=classic;html=1;rounded=0;" parent="WIyWlLk6GJQsqaUBKTNV-1" edge="1">
          <mxGeometry width="50" height="50" relative="1" as="geometry">
            <mxPoint x="420" y="40" as="sourcePoint" />
            <mxPoint x="420" y="-20" as="targetPoint" />
          </mxGeometry>
        </mxCell>
        <mxCell id="9vF0xcidIcbJNyKsXih9-13" value="" style="endArrow=classic;html=1;rounded=0;exitX=1;exitY=0.5;exitDx=0;exitDy=0;" parent="WIyWlLk6GJQsqaUBKTNV-1" source="9vF0xcidIcbJNyKsXih9-11" edge="1">
          <mxGeometry width="50" height="50" relative="1" as="geometry">
            <mxPoint x="480" y="-10" as="sourcePoint" />
            <mxPoint x="530" y="-60" as="targetPoint" />
          </mxGeometry>
        </mxCell>
        <mxCell id="9vF0xcidIcbJNyKsXih9-15" value="" style="endArrow=classic;startArrow=classic;html=1;rounded=0;entryX=0.963;entryY=0.788;entryDx=0;entryDy=0;entryPerimeter=0;exitX=0.62;exitY=0.04;exitDx=0;exitDy=0;exitPerimeter=0;" parent="WIyWlLk6GJQsqaUBKTNV-1" source="54b1UpvcOUvbJdiVJiE3-2" edge="1">
          <mxGeometry width="50" height="50" relative="1" as="geometry">
            <mxPoint x="410" y="70" as="sourcePoint" />
            <mxPoint x="607.04" y="-36.960000000000036" as="targetPoint" />
          </mxGeometry>
        </mxCell>
        <mxCell id="9vF0xcidIcbJNyKsXih9-16" value="Access" style="text;html=1;align=center;verticalAlign=middle;resizable=0;points=[];autosize=1;strokeColor=none;fillColor=none;" parent="WIyWlLk6GJQsqaUBKTNV-1" vertex="1">
          <mxGeometry x="630" y="-12" width="60" height="30" as="geometry" />
        </mxCell>
        <mxCell id="9vF0xcidIcbJNyKsXih9-17" value="Information" style="text;html=1;align=center;verticalAlign=middle;resizable=0;points=[];autosize=1;strokeColor=none;fillColor=none;" parent="WIyWlLk6GJQsqaUBKTNV-1" vertex="1">
          <mxGeometry x="340" y="-12" width="80" height="30" as="geometry" />
        </mxCell>
        <mxCell id="9vF0xcidIcbJNyKsXih9-18" value="Information Store&lt;div&gt;&lt;br&gt;&lt;/div&gt;" style="text;html=1;align=center;verticalAlign=middle;resizable=0;points=[];autosize=1;strokeColor=none;fillColor=none;" parent="WIyWlLk6GJQsqaUBKTNV-1" vertex="1">
          <mxGeometry x="430" y="-100" width="120" height="40" as="geometry" />
        </mxCell>
        <mxCell id="9vF0xcidIcbJNyKsXih9-19" value="Post Customizer&lt;div&gt;AI&lt;/div&gt;" style="ellipse;whiteSpace=wrap;html=1;aspect=fixed;" parent="WIyWlLk6GJQsqaUBKTNV-1" vertex="1">
          <mxGeometry x="170" y="-160" width="80" height="80" as="geometry" />
        </mxCell>
        <mxCell id="9vF0xcidIcbJNyKsXih9-20" value="" style="endArrow=classic;startArrow=classic;html=1;rounded=0;" parent="WIyWlLk6GJQsqaUBKTNV-1" source="9vF0xcidIcbJNyKsXih9-21" target="9vF0xcidIcbJNyKsXih9-19" edge="1">
          <mxGeometry width="50" height="50" relative="1" as="geometry">
            <mxPoint x="160" y="70" as="sourcePoint" />
            <mxPoint x="210" y="20" as="targetPoint" />
          </mxGeometry>
        </mxCell>
        <mxCell id="9vF0xcidIcbJNyKsXih9-22" value="" style="endArrow=classic;startArrow=classic;html=1;rounded=0;exitX=0.091;exitY=0.182;exitDx=0;exitDy=0;exitPerimeter=0;" parent="WIyWlLk6GJQsqaUBKTNV-1" source="54b1UpvcOUvbJdiVJiE3-0" target="9vF0xcidIcbJNyKsXih9-21" edge="1">
          <mxGeometry width="50" height="50" relative="1" as="geometry">
            <mxPoint x="372" y="231" as="sourcePoint" />
            <mxPoint x="210" y="20" as="targetPoint" />
          </mxGeometry>
        </mxCell>
        <mxCell id="9vF0xcidIcbJNyKsXih9-21" value="Post customize&amp;nbsp;&lt;div&gt;Request&lt;/div&gt;&lt;div&gt;and response&lt;/div&gt;" style="text;html=1;align=center;verticalAlign=middle;resizable=0;points=[];autosize=1;strokeColor=none;fillColor=none;" parent="WIyWlLk6GJQsqaUBKTNV-1" vertex="1">
          <mxGeometry x="210" y="-30" width="110" height="60" as="geometry" />
        </mxCell>
        <mxCell id="9vF0xcidIcbJNyKsXih9-24" value="1.6" style="text;html=1;align=center;verticalAlign=middle;resizable=0;points=[];autosize=1;strokeColor=none;fillColor=none;" parent="WIyWlLk6GJQsqaUBKTNV-1" vertex="1">
          <mxGeometry x="155" y="468" width="40" height="30" as="geometry" />
        </mxCell>
        <mxCell id="9vF0xcidIcbJNyKsXih9-26" value="1.7" style="text;html=1;align=center;verticalAlign=middle;resizable=0;points=[];autosize=1;strokeColor=none;fillColor=none;" parent="WIyWlLk6GJQsqaUBKTNV-1" vertex="1">
          <mxGeometry x="730" y="-40" width="40" height="30" as="geometry" />
        </mxCell>
        <mxCell id="9vF0xcidIcbJNyKsXih9-28" value="1.8" style="text;html=1;align=center;verticalAlign=middle;resizable=0;points=[];autosize=1;strokeColor=none;fillColor=none;" parent="WIyWlLk6GJQsqaUBKTNV-1" vertex="1">
          <mxGeometry x="394" y="-100" width="40" height="30" as="geometry" />
        </mxCell>
        <mxCell id="9vF0xcidIcbJNyKsXih9-29" value="1.9" style="text;html=1;align=center;verticalAlign=middle;resizable=0;points=[];autosize=1;strokeColor=none;fillColor=none;" parent="WIyWlLk6GJQsqaUBKTNV-1" vertex="1">
          <mxGeometry x="190" y="-160" width="40" height="30" as="geometry" />
        </mxCell>
        <mxCell id="wFrm0zAMdK5_mU01AOn5-3" value="User Database&lt;div&gt;Table&lt;/div&gt;" style="shape=partialRectangle;whiteSpace=wrap;html=1;left=0;right=0;fillColor=none;" parent="WIyWlLk6GJQsqaUBKTNV-1" vertex="1">
          <mxGeometry x="530" y="510" width="110" height="32" as="geometry" />
        </mxCell>
        <mxCell id="wFrm0zAMdK5_mU01AOn5-4" value="Employer Database Table" style="shape=partialRectangle;whiteSpace=wrap;html=1;left=0;right=0;fillColor=none;" parent="WIyWlLk6GJQsqaUBKTNV-1" vertex="1">
          <mxGeometry x="542.5" y="-100" width="95" height="40" as="geometry" />
        </mxCell>
      </root>
    </mxGraphModel>
  </diagram>
</mxfile>
